<svg width="110" height="40" viewBox="0 0 110 40" fill="none" xmlns="http://www.w3.org/2000/svg">
<path d="M22.5443 10.7731C22.9197 10.8848 23.2895 11.0167 23.6507 11.1743C23.8198 11.2489 24.0176 11.1715 24.0978 11.0024L28.2827 2.23704C28.3658 2.06219 28.2913 1.85008 28.1164 1.76983C27.1562 1.33414 26.1587 0.970112 25.1412 0.692076C24.9549 0.640481 24.7628 0.755135 24.7141 0.941449L22.3092 10.3517C22.2633 10.5323 22.3665 10.7186 22.5443 10.7702V10.7731Z" fill="#F5C42A" style="fill:#F5C42A;fill:color(display-p3 0.9608 0.7686 0.1647);fill-opacity:1;"/>
<path d="M25.4933 12.2392C25.8115 12.4743 26.1153 12.7294 26.402 13.0017C26.5367 13.1307 26.7488 13.1249 26.8807 12.996L33.8115 6.19122C33.9491 6.05651 33.952 5.83293 33.8115 5.69534C33.0605 4.95869 32.2522 4.2765 31.3952 3.66883C31.2375 3.55704 31.0168 3.59717 30.9079 3.75769L25.4131 11.7663C25.307 11.9182 25.3414 12.1303 25.4905 12.2392H25.4933Z" fill="#F5C42A" style="fill:#F5C42A;fill:color(display-p3 0.9608 0.7686 0.1647);fill-opacity:1;"/>
<path d="M15.5959 11.0073C15.6762 11.1736 15.874 11.2509 16.0431 11.1764C16.4043 11.0188 16.774 10.8841 17.1495 10.7723C17.3272 10.7207 17.4304 10.5344 17.3846 10.3538L14.9567 0.949261C14.908 0.762948 14.716 0.648294 14.5297 0.699888C13.515 0.980791 12.5175 1.34482 11.5601 1.78337C11.3853 1.86363 11.3107 2.07574 11.3939 2.25059L15.5959 11.0073Z" fill="#F5C42A" style="fill:#F5C42A;fill:color(display-p3 0.9608 0.7686 0.1647);fill-opacity:1;"/>
<path d="M27.7781 14.6398C27.9959 14.9694 28.1965 15.3105 28.3714 15.6631C28.4545 15.8293 28.6552 15.8981 28.8243 15.8207L37.6613 11.7849C37.8361 11.7046 37.9164 11.4954 37.8332 11.3205C37.3803 10.3718 36.8501 9.4574 36.251 8.59177C36.1421 8.43125 35.9214 8.39685 35.7637 8.50864L27.8698 14.1668C27.7179 14.2757 27.6777 14.485 27.7809 14.6369L27.7781 14.6398Z" fill="#F5C42A" style="fill:#F5C42A;fill:color(display-p3 0.9608 0.7686 0.1647);fill-opacity:1;"/>
<path d="M2.02668 11.8072L10.8694 15.8258C11.0385 15.9032 11.2392 15.8344 11.3223 15.6681C11.4971 15.3156 11.6949 14.9745 11.9127 14.6477C12.0159 14.4929 11.9729 14.2837 11.8239 14.1776L3.92421 8.52231C3.76656 8.41053 3.54585 8.44492 3.43693 8.60544C2.83786 9.47394 2.30759 10.3912 1.8547 11.3428C1.77158 11.5177 1.84897 11.7269 2.02668 11.8072Z" fill="#F5C42A" style="fill:#F5C42A;fill:color(display-p3 0.9608 0.7686 0.1647);fill-opacity:1;"/>
<path d="M39.1346 14.8805C39.0858 14.6942 38.8909 14.5824 38.7046 14.6369L29.475 17.3083C29.2972 17.357 29.1855 17.5405 29.2284 17.7211C29.3202 18.1023 29.389 18.4892 29.432 18.8791C29.452 19.0625 29.6183 19.1972 29.8046 19.1829L39.3639 18.3746C39.5559 18.3603 39.7021 18.1911 39.6849 17.9962C39.5846 16.9471 39.4011 15.9009 39.1346 14.8805Z" fill="#F5C42A" style="fill:#F5C42A;fill:color(display-p3 0.9608 0.7686 0.1647);fill-opacity:1;"/>
<path d="M12.8073 13.0048C12.9391 13.1338 13.1512 13.1395 13.2859 13.0105C13.5726 12.7382 13.8764 12.4831 14.1974 12.2452C14.3465 12.1363 14.378 11.9242 14.2748 11.7723L8.77142 3.76941C8.6625 3.60889 8.44179 3.56876 8.28414 3.68055C7.42997 4.29108 6.61879 4.97041 5.87067 5.70706C5.73309 5.84178 5.73595 6.06536 5.87067 6.20294L12.8044 13.0048H12.8073Z" fill="#F5C42A" style="fill:#F5C42A;fill:color(display-p3 0.9608 0.7686 0.1647);fill-opacity:1;"/>
<path d="M9.8402 19.1226C10.0265 19.1369 10.1899 19.0051 10.2128 18.8188C10.2558 18.429 10.3246 18.042 10.4163 17.6608C10.4593 17.4802 10.3504 17.2996 10.1698 17.248L0.983158 14.6339C0.796845 14.5823 0.601933 14.6912 0.553204 14.8775C0.286633 15.898 0.103187 16.9413 0.00286406 17.9933C-0.0143341 18.1853 0.128984 18.3544 0.323896 18.3716L9.84307 19.1226H9.8402Z" fill="#F5C42A" style="fill:#F5C42A;fill:color(display-p3 0.9608 0.7686 0.1647);fill-opacity:1;"/>
<path d="M39.0429 20.168H36.8473C36.5779 20.168 36.36 20.3801 36.3572 20.6524C36.1766 29.5668 28.7728 36.8215 19.8527 36.8215C10.9326 36.8215 3.52592 29.5668 3.34534 20.6524C3.33961 20.3801 3.12463 20.168 2.8552 20.168H0.656701C0.521982 20.168 0.398729 20.2196 0.304139 20.317C0.212416 20.4116 0.160821 20.5349 0.163688 20.6667C0.255411 25.8434 2.34498 30.7018 6.05118 34.345C9.76025 37.9938 14.6617 40.0032 19.8498 40.0032C25.0379 40.0032 29.9394 37.9938 33.6485 34.345C37.3518 30.7018 39.4442 25.8434 39.5359 20.6667C39.5359 20.5349 39.4872 20.4116 39.3955 20.317C39.3009 20.2224 39.1777 20.168 39.0429 20.168Z" fill="#F5C42A" style="fill:#F5C42A;fill:color(display-p3 0.9608 0.7686 0.1647);fill-opacity:1;"/>
<path d="M10.0554 20.4944C10.0468 20.2307 9.8318 20.0215 9.56523 20.0215H7.3696C7.23488 20.0215 7.11163 20.0731 7.01704 20.1705C6.92245 20.268 6.87372 20.397 6.87658 20.5317C6.97117 23.9169 8.36422 27.0871 10.7978 29.4604C13.237 31.8366 16.4531 33.1465 19.8497 33.1465C23.2463 33.1465 26.4624 31.8366 28.9017 29.4604C31.3381 27.0871 32.7311 23.9169 32.8228 20.5317C32.8257 20.397 32.777 20.268 32.6824 20.1705C32.5878 20.0759 32.4645 20.0215 32.3298 20.0215H30.1342C29.8676 20.0215 29.6527 20.2279 29.6441 20.4944C29.4692 25.8058 25.1668 29.9677 19.8497 29.9677C14.5326 29.9677 10.2302 25.8058 10.0554 20.4944Z" fill="#F5C42A" style="fill:#F5C42A;fill:color(display-p3 0.9608 0.7686 0.1647);fill-opacity:1;"/>
<path d="M26.2732 20.5379C26.279 20.4318 26.2417 20.3286 26.1672 20.2512C26.0927 20.1739 25.9952 20.1309 25.8863 20.1309H23.6849C23.4843 20.1309 23.3209 20.2828 23.3037 20.4863C23.1432 22.2548 21.624 23.6393 19.8469 23.6393C18.0697 23.6393 16.5506 22.2548 16.39 20.4863C16.3728 20.2828 16.2066 20.1309 16.0088 20.1309H13.8075C13.7014 20.1309 13.6011 20.1739 13.5266 20.2512C13.452 20.3286 13.4148 20.4318 13.4205 20.5379C13.6154 23.9374 16.4359 26.6002 19.844 26.6002C23.2521 26.6002 26.0726 23.9374 26.2675 20.5379H26.2732Z" fill="#F5C42A" style="fill:#F5C42A;fill:color(display-p3 0.9608 0.7686 0.1647);fill-opacity:1;"/>
<path d="M19.262 10.4309C19.6518 10.4022 20.0474 10.3994 20.4372 10.4194C20.6235 10.428 20.7812 10.2876 20.7984 10.1041L21.6583 0.430169C21.6755 0.238123 21.5322 0.0661415 21.3401 0.0518097C20.2882 -0.0227156 19.2276 -0.0141165 18.1757 0.0804732C17.9836 0.0976714 17.8432 0.272519 17.8632 0.464565L18.898 10.1213C18.9181 10.3048 19.0786 10.4452 19.2649 10.4309H19.262Z" fill="#F5C42A" style="fill:#F5C42A;fill:color(display-p3 0.9608 0.7686 0.1647);fill-opacity:1;"/>
<path d="M45.9077 24.1276V23.6317C46.3291 23.6317 46.6329 23.6059 46.8135 23.5543C46.9969 23.5027 47.1087 23.4024 47.1546 23.2562C47.2004 23.1071 47.2234 22.8922 47.2234 22.6055V14.3791C47.2234 14.0838 47.2004 13.8603 47.1546 13.7112C47.1087 13.5622 46.9941 13.4618 46.8135 13.4131C46.63 13.3615 46.3291 13.3357 45.9077 13.3357V12.8398H50.1155V13.3357C49.7056 13.3357 49.4047 13.3615 49.2184 13.4131C49.0292 13.4647 48.9145 13.565 48.8687 13.7112C48.8228 13.8603 48.7999 14.081 48.7999 14.3791V22.6055C48.7999 22.8922 48.8228 23.1071 48.8687 23.2562C48.9145 23.4052 49.032 23.5056 49.2184 23.5543C49.4075 23.6059 49.7056 23.6317 50.1155 23.6317V24.1276H45.9077Z" fill="white" style="fill:white;fill-opacity:1;"/>
<path d="M51.3998 24.1275V23.6316C51.7753 23.6316 52.0448 23.6087 52.2024 23.5628C52.3629 23.5169 52.4604 23.4281 52.5005 23.2991C52.5407 23.1672 52.5607 22.9723 52.5607 22.7086V17.6122C52.5607 17.317 52.5263 17.1192 52.4575 17.0218C52.3887 16.9243 52.2569 16.8756 52.0648 16.8756H51.483V16.3625L53.5009 16.0214H53.9624V17.2883H54.014V22.743C54.014 23.0153 54.0369 23.216 54.0827 23.3421C54.1286 23.4682 54.2347 23.5485 54.398 23.5829C54.5643 23.6173 54.8108 23.6345 55.1433 23.6345V24.1303H51.397L51.3998 24.1275ZM56.5134 24.1275V23.6316C56.8545 23.6316 57.1068 23.6144 57.2644 23.58C57.4249 23.5456 57.5252 23.4653 57.5711 23.3392C57.617 23.2131 57.6399 23.0153 57.6399 22.7401V18.5839C57.6399 18.2428 57.5883 17.9333 57.4851 17.661C57.3819 17.3887 57.2128 17.168 56.9806 17.0017C56.7456 16.8355 56.436 16.7523 56.0491 16.7523C55.5245 16.7523 55.0974 16.8956 54.7649 17.1794C54.4353 17.4661 54.1372 17.7957 53.8764 18.1712V17.4345C54.1487 17.0934 54.4296 16.8097 54.7133 16.5889C54.9971 16.3654 55.3096 16.202 55.6449 16.0931C55.9803 15.9841 56.3558 15.9297 56.7657 15.9297C57.5424 15.9297 58.1186 16.1361 58.5027 16.546C58.8839 16.9558 59.0759 17.5721 59.0759 18.3919V22.7029C59.0759 22.9666 59.0989 23.1615 59.1447 23.2934C59.1906 23.4252 59.2967 23.5141 59.46 23.5571C59.6263 23.6029 59.89 23.6259 60.254 23.6259V24.1217H56.5077L56.5134 24.1275Z" fill="white" style="fill:white;fill-opacity:1;"/>
<path d="M63.7796 24.3133C63.5159 24.3133 63.255 24.2646 62.9942 24.1671C62.7305 24.0697 62.5184 23.892 62.3521 23.6283C62.1859 23.3674 62.1028 22.9948 62.1028 22.5161V16.6659H60.853V16.1528C61.2744 16.1069 61.6327 15.9665 61.9308 15.7343C62.226 15.5021 62.4668 15.1926 62.6502 14.8113C62.8337 14.4301 62.9627 14.0002 63.0429 13.5215H63.5388V16.1213H65.4363V16.6687H63.5388V22.261C63.5388 22.7512 63.6162 23.0894 63.771 23.2786C63.9258 23.4677 64.1379 23.5595 64.413 23.5595C64.608 23.5595 64.8 23.5107 64.9949 23.4133C65.1898 23.3158 65.3417 23.227 65.4564 23.1496L65.6456 23.5595C65.508 23.6627 65.3532 23.7744 65.1755 23.892C64.9978 24.0123 64.8 24.1127 64.5764 24.1901C64.3528 24.2703 64.0891 24.3104 63.7824 24.3104L63.7796 24.3133Z" fill="white" style="fill:white;fill-opacity:1;"/>
<path d="M66.4482 24.1262V23.6303C66.8237 23.6303 67.0931 23.6074 67.2508 23.5615C67.4113 23.5156 67.5087 23.4268 67.5489 23.2978C67.589 23.1659 67.6091 22.971 67.6091 22.7073V17.6109C67.6091 17.3157 67.5747 17.1179 67.5059 17.0205C67.4371 16.923 67.3052 16.8743 67.1132 16.8743H66.5313V16.3612L68.5492 16.0201H69.0107V17.6281H69.0623V22.7073C69.0623 22.9796 69.0881 23.1831 69.1397 23.315C69.1913 23.4468 69.3088 23.5328 69.4894 23.573C69.6728 23.6131 69.9623 23.6332 70.3608 23.6332V24.129H66.4453L66.4482 24.1262ZM68.9964 19.3021V17.7285C69.0766 17.5794 69.1741 17.4046 69.2859 17.1982C69.4005 16.9918 69.5438 16.794 69.713 16.5991C69.8849 16.4042 70.0885 16.2437 70.3292 16.1118C70.57 15.98 70.8423 15.9141 71.149 15.9141C71.5589 15.9141 71.8771 16.0344 72.0978 16.2724C72.3213 16.5131 72.4303 16.8428 72.4303 17.2641C72.4303 17.5823 72.3529 17.846 72.1981 18.0524C72.0433 18.2587 71.7968 18.3591 71.4528 18.3591C71.1576 18.3591 70.934 18.2788 70.785 18.1183C70.6359 17.9578 70.5614 17.7715 70.5614 17.5536C70.5614 17.3816 70.5958 17.2469 70.6646 17.1437C70.7334 17.0405 70.8022 16.9545 70.871 16.8858C70.9398 16.817 70.9742 16.7482 70.9742 16.6794C70.9742 16.6335 70.957 16.5963 70.9226 16.5676C70.8882 16.5389 70.8308 16.5246 70.7506 16.5246C70.5786 16.5246 70.398 16.5963 70.2031 16.7396C70.0082 16.8829 69.8247 17.0807 69.647 17.3386C69.4693 17.5966 69.3289 17.889 69.2199 18.2186C69.111 18.5482 69.0566 18.9037 69.0566 19.2792L68.9878 19.2964L68.9964 19.3021Z" fill="white" style="fill:white;fill-opacity:1;"/>
<path d="M76.3857 24.3129C76.0102 24.3014 75.7035 24.2584 75.4713 24.1839C75.2363 24.1094 75.0414 24.0348 74.8809 23.9603C74.7203 23.8858 74.557 23.8485 74.385 23.8485C74.2589 23.8485 74.1671 23.8772 74.1127 23.9345C74.0554 23.9918 73.998 24.0721 73.9407 24.1753H73.6168L73.4448 21.3519H73.7859C74.0152 22.1717 74.3535 22.7794 74.8035 23.1721C75.2535 23.5647 75.7752 23.7625 76.3685 23.7625C76.8586 23.7625 77.2571 23.6421 77.5666 23.4042C77.8733 23.1635 78.0281 22.8166 78.0281 22.3609C78.0281 22.0083 77.9364 21.7274 77.7558 21.5239C77.5724 21.3175 77.3345 21.1455 77.0364 21.0022C76.7383 20.8589 76.4258 20.7271 76.0962 20.6009L75.6691 20.4462C75.0299 20.1853 74.534 19.8987 74.1815 19.592C73.8289 19.2853 73.6512 18.841 73.6512 18.2591C73.6512 17.5282 73.9092 16.9607 74.4223 16.5479C74.9353 16.1352 75.6089 15.9316 76.4402 15.9316C76.7698 15.9316 77.0364 15.9574 77.2341 16.009C77.4348 16.0606 77.5982 16.1122 77.73 16.1638C77.8619 16.2154 77.988 16.2412 78.1141 16.2412C78.2746 16.2412 78.3721 16.2011 78.4036 16.1208C78.438 16.0406 78.4609 15.9775 78.4724 15.9316H78.7791L78.8995 18.4454H78.5584C78.4781 18.0699 78.3549 17.7317 78.1915 17.4365C78.0253 17.1412 77.8074 16.9033 77.5322 16.7256C77.2599 16.5479 76.916 16.4619 76.5061 16.4619C76.0503 16.4619 75.6691 16.5766 75.3595 16.803C75.0528 17.0323 74.8981 17.3276 74.8981 17.6916C74.8981 17.9553 74.9755 18.1846 75.1302 18.3852C75.285 18.5859 75.4771 18.7493 75.7121 18.8811C75.9443 19.013 76.1707 19.119 76.3886 19.1964L76.85 19.3512C77.3746 19.5347 77.8217 19.7296 78.1915 19.9417C78.5613 20.1538 78.8479 20.4089 79.0457 20.7127C79.2463 21.0137 79.3438 21.3892 79.3438 21.8335C79.3438 22.3351 79.2177 22.7736 78.9683 23.1491C78.716 23.5246 78.3692 23.817 77.9249 24.0205C77.4806 24.2269 76.9676 24.3215 76.3857 24.31V24.3129Z" fill="white" style="fill:white;fill-opacity:1;"/>
<path d="M83.2591 24.3133C82.9954 24.3133 82.7345 24.2646 82.4737 24.1671C82.21 24.0697 81.9979 23.892 81.8316 23.6283C81.6654 23.3674 81.5822 22.9948 81.5822 22.5161V16.6659H80.3325V16.1528C80.7539 16.1069 81.1122 15.9665 81.4103 15.7343C81.7055 15.5021 81.9463 15.1926 82.1297 14.8113C82.3132 14.4301 82.4422 14.0002 82.5224 13.5215H83.0183V16.1213H84.9158V16.6687H83.0183V22.261C83.0183 22.7512 83.0957 23.0894 83.2505 23.2786C83.4053 23.4677 83.6174 23.5595 83.8925 23.5595C84.0874 23.5595 84.2795 23.5107 84.4744 23.4133C84.6693 23.3158 84.8212 23.227 84.9359 23.1496L85.1251 23.5595C84.9875 23.6627 84.8327 23.7744 84.655 23.892C84.4773 24.0123 84.2795 24.1127 84.0559 24.1901C83.8323 24.2703 83.5686 24.3104 83.2619 24.3104L83.2591 24.3133Z" fill="white" style="fill:white;fill-opacity:1;"/>
<path d="M85.9105 24.1269V23.631C86.2745 23.631 86.5411 23.6081 86.7045 23.5622C86.8707 23.5164 86.9711 23.4275 87.0112 23.2985C87.0513 23.1667 87.0714 22.9718 87.0714 22.7081V17.6117C87.0714 17.3164 87.037 17.1187 86.9682 17.0212C86.8994 16.9237 86.7676 16.875 86.5755 16.875H85.9764V16.3619L88.0632 16.0208H88.5246V22.7081C88.5246 22.9804 88.5476 23.1839 88.5934 23.3157C88.6393 23.4476 88.7453 23.5336 88.9087 23.5737C89.075 23.6138 89.3387 23.6339 89.7027 23.6339V24.1298H85.9048L85.9105 24.1269ZM87.7593 14.5131C87.4755 14.5131 87.2462 14.4214 87.0743 14.2408C86.9023 14.0574 86.8163 13.8424 86.8163 13.5902C86.8163 13.3179 86.9023 13.0886 87.0743 12.9051C87.2462 12.7217 87.4727 12.6328 87.7593 12.6328C87.9542 12.6328 88.1205 12.6758 88.2638 12.7618C88.4071 12.8478 88.5132 12.9624 88.5877 13.1029C88.6622 13.2462 88.6995 13.4067 88.6995 13.5902C88.6995 13.8424 88.6106 14.0574 88.4358 14.2408C88.2581 14.4243 88.0345 14.5131 87.7593 14.5131Z" fill="white" style="fill:white;fill-opacity:1;"/>
<path d="M90.9897 24.1275V23.6316C91.3652 23.6316 91.6346 23.6087 91.7923 23.5628C91.9528 23.5169 92.0502 23.4281 92.0904 23.2991C92.1305 23.1672 92.1506 22.9723 92.1506 22.7086V17.6122C92.1506 17.317 92.1162 17.1192 92.0474 17.0218C91.9786 16.9243 91.8467 16.8756 91.6547 16.8756H91.0728V16.3625L93.0907 16.0214H93.5522V17.2883H93.6038V22.743C93.6038 23.0153 93.6267 23.216 93.6726 23.3421C93.7185 23.4682 93.8245 23.5485 93.9879 23.5829C94.1541 23.6173 94.4006 23.6345 94.7331 23.6345V24.1303H90.9868L90.9897 24.1275ZM96.1033 24.1275V23.6316C96.4444 23.6316 96.6966 23.6144 96.8542 23.58C97.0148 23.5456 97.1151 23.4653 97.1609 23.3392C97.2068 23.2131 97.2297 23.0153 97.2297 22.7401V18.5839C97.2297 18.2428 97.1782 17.9333 97.075 17.661C96.9718 17.3887 96.8027 17.168 96.5705 17.0017C96.3354 16.8355 96.0259 16.7523 95.6389 16.7523C95.1144 16.7523 94.6873 16.8956 94.3548 17.1794C94.0252 17.4661 93.7271 17.7957 93.4662 18.1712V17.4345C93.7385 17.0934 94.0194 16.8097 94.3032 16.5889C94.587 16.3654 94.8994 16.202 95.2348 16.0931C95.5701 15.9841 95.9456 15.9297 96.3555 15.9297C97.1323 15.9297 97.7084 16.1361 98.0925 16.546C98.4737 16.9558 98.6658 17.5721 98.6658 18.3919V22.7029C98.6658 22.9666 98.6887 23.1615 98.7346 23.2934C98.7804 23.4252 98.8865 23.5141 99.0499 23.5571C99.2161 23.6029 99.4798 23.6259 99.8439 23.6259V24.1217H96.0975L96.1033 24.1275Z" fill="white" style="fill:white;fill-opacity:1;"/>
<path d="M104.006 27.7525C103.367 27.7525 102.782 27.678 102.252 27.5289C101.721 27.3799 101.3 27.1506 100.985 26.8353C100.672 26.5228 100.515 26.1187 100.515 25.6285C100.515 25.2072 100.658 24.846 100.942 24.5508C101.226 24.2555 101.716 24.0033 102.412 23.7969L103.524 23.9173C103.08 23.9861 102.739 24.1094 102.498 24.2842C102.257 24.4591 102.097 24.6568 102.011 24.8747C101.925 25.0896 101.882 25.296 101.882 25.4909C101.882 26.0155 102.094 26.4311 102.515 26.7407C102.937 27.0474 103.507 27.2022 104.227 27.2022C104.705 27.2022 105.129 27.1305 105.502 26.9872C105.872 26.8439 106.164 26.6375 106.373 26.3623C106.586 26.09 106.689 25.7518 106.689 25.3534C106.689 24.9205 106.528 24.5966 106.21 24.3874C105.892 24.1753 105.327 24.0721 104.516 24.0721H102.822C102.435 24.0721 102.094 24.0033 101.805 23.8657C101.515 23.7281 101.289 23.5533 101.128 23.3354C100.968 23.1176 100.89 22.8854 100.89 22.6332C100.89 22.2462 101.079 21.8793 101.455 21.5382C101.83 21.1971 102.384 20.8933 103.114 20.6325L103.731 20.8216C103.662 20.8331 103.539 20.8732 103.364 20.942C103.186 21.0108 103.003 21.1025 102.808 21.2143C102.613 21.329 102.449 21.4608 102.312 21.607C102.174 21.7561 102.105 21.9195 102.105 22.1029C102.105 22.2749 102.212 22.4354 102.421 22.5902C102.633 22.745 103.04 22.8224 103.645 22.8224H104.894C105.978 22.8224 106.763 23.0087 107.253 23.3784C107.744 23.7482 107.99 24.2871 107.99 24.9951C107.99 25.6457 107.807 26.1731 107.443 26.5773C107.079 26.9814 106.594 27.2795 105.989 27.4659C105.385 27.655 104.722 27.7468 104.006 27.7468V27.7525ZM104.075 21.2688C103.55 21.2688 103.04 21.1828 102.544 21.0108C102.048 20.8388 101.641 20.5637 101.32 20.1824C101.002 19.8012 100.841 19.2853 100.841 18.6346C100.841 18.1445 100.936 17.7288 101.122 17.3849C101.309 17.0409 101.564 16.7629 101.885 16.5479C102.203 16.3301 102.558 16.1753 102.945 16.0778C103.332 15.9804 103.719 15.9316 104.109 15.9316C104.668 15.9316 105.19 16.0234 105.674 16.2039C106.159 16.3874 106.551 16.674 106.855 17.0667C107.156 17.4594 107.308 17.9754 107.308 18.6146C107.308 19.2537 107.15 19.784 106.838 20.171C106.525 20.5579 106.118 20.8388 105.622 21.008C105.127 21.1799 104.611 21.2659 104.075 21.2659V21.2688ZM104.04 20.7213C104.702 20.7213 105.161 20.5293 105.416 20.1481C105.674 19.7668 105.8 19.228 105.8 18.5314C105.8 18.133 105.749 17.7776 105.645 17.4709C105.542 17.1642 105.373 16.9234 105.132 16.7514C104.892 16.5794 104.556 16.4934 104.123 16.4934C103.484 16.4934 103.04 16.6884 102.791 17.0753C102.538 17.4623 102.415 17.9868 102.415 18.6489C102.415 19.2423 102.53 19.7353 102.756 20.128C102.985 20.5207 103.413 20.7185 104.04 20.7185V20.7213ZM108.52 17.832C108.314 17.832 108.151 17.7718 108.024 17.6515C107.898 17.5311 107.835 17.3992 107.835 17.2502C107.835 17.1355 107.847 17.0495 107.87 16.9922C107.893 16.9349 107.904 16.8775 107.904 16.8202C107.904 16.7514 107.875 16.6884 107.818 16.631C107.761 16.5737 107.675 16.545 107.56 16.545C107.457 16.545 107.328 16.6052 107.176 16.7256C107.021 16.846 106.861 17.0524 106.689 17.3505L106.348 17.0266C106.543 16.6855 106.778 16.4161 107.059 16.224C107.337 16.0291 107.643 15.9345 107.973 15.9345C108.348 15.9345 108.652 16.0348 108.879 16.2326C109.108 16.4333 109.22 16.697 109.22 17.0266C109.22 17.2645 109.16 17.4594 109.039 17.6085C108.919 17.7575 108.747 17.832 108.518 17.832H108.52Z" fill="white" style="fill:white;fill-opacity:1;"/>
</svg>
