<svg width="57" height="56" viewBox="0 0 57 56" fill="none" xmlns="http://www.w3.org/2000/svg">
<path d="M32.1621 15.0799C32.6878 15.2364 33.2055 15.421 33.7111 15.6417C33.9479 15.7461 34.2248 15.6377 34.3371 15.401L40.196 3.12951C40.3123 2.88473 40.208 2.58777 39.9632 2.47541C38.6189 1.86545 37.2224 1.35581 35.7978 0.966562C35.537 0.89433 35.2681 1.05485 35.1999 1.31568L31.8331 14.49C31.7689 14.7428 31.9133 15.0037 32.1621 15.0759V15.0799Z" fill="#F5C42A" style="fill:#F5C42A;fill:color(display-p3 0.9608 0.7686 0.1647);fill-opacity:1;"/>
<path d="M36.2913 17.1341C36.7367 17.4632 37.1621 17.8204 37.5634 18.2016C37.752 18.3822 38.0489 18.3741 38.2335 18.1936L47.9367 8.66693C48.1293 8.47833 48.1333 8.16532 47.9367 7.9727C46.8853 6.94139 45.7537 5.98632 44.5538 5.13558C44.3331 4.97908 44.0241 5.03526 43.8716 5.25998L36.1789 16.472C36.0304 16.6847 36.0786 16.9817 36.2873 17.1341H36.2913Z" fill="#F5C42A" style="fill:#F5C42A;fill:color(display-p3 0.9608 0.7686 0.1647);fill-opacity:1;"/>
<path d="M22.4349 15.4087C22.5473 15.6414 22.8242 15.7498 23.0609 15.6454C23.5666 15.4247 24.0842 15.2361 24.6099 15.0796C24.8587 15.0074 25.0032 14.7465 24.939 14.4937L21.54 1.3274C21.4718 1.06656 21.203 0.906049 20.9421 0.978281C19.5215 1.37154 18.1251 1.88118 16.7848 2.49516C16.54 2.60752 16.4356 2.90447 16.552 3.14926L22.4349 15.4087Z" fill="#F5C42A" style="fill:#F5C42A;fill:color(display-p3 0.9608 0.7686 0.1647);fill-opacity:1;"/>
<path d="M39.4898 20.4933C39.7947 20.9548 40.0756 21.4324 40.3204 21.9259C40.4368 22.1587 40.7177 22.255 40.9545 22.1467L53.3262 16.4965C53.571 16.3841 53.6834 16.0912 53.567 15.8464C52.933 14.5181 52.1906 13.238 51.3519 12.0261C51.1994 11.8014 50.8904 11.7533 50.6697 11.9098L39.6182 19.8312C39.4055 19.9837 39.3493 20.2766 39.4938 20.4893L39.4898 20.4933Z" fill="#F5C42A" style="fill:#F5C42A;fill:color(display-p3 0.9608 0.7686 0.1647);fill-opacity:1;"/>
<path d="M3.43794 16.5281L15.8177 22.1542C16.0545 22.2625 16.3354 22.1662 16.4518 21.9334C16.6966 21.4399 16.9735 20.9623 17.2784 20.5048C17.4229 20.2882 17.3627 19.9952 17.154 19.8467L6.09448 11.9293C5.87377 11.7728 5.56478 11.8209 5.41229 12.0457C4.57359 13.2616 3.83121 14.5457 3.19717 15.878C3.0808 16.1228 3.18914 16.4157 3.43794 16.5281Z" fill="#F5C42A" style="fill:#F5C42A;fill:color(display-p3 0.9608 0.7686 0.1647);fill-opacity:1;"/>
<path d="M55.3888 20.8311C55.3206 20.5703 55.0477 20.4138 54.7869 20.49L41.8653 24.2301C41.6165 24.2983 41.46 24.5551 41.5202 24.8079C41.6486 25.3416 41.7449 25.8834 41.8051 26.4291C41.8332 26.686 42.066 26.8746 42.3268 26.8545L55.7098 25.7229C55.9787 25.7028 56.1833 25.466 56.1593 25.1932C56.0188 23.7244 55.762 22.2597 55.3888 20.8311Z" fill="#F5C42A" style="fill:#F5C42A;fill:color(display-p3 0.9608 0.7686 0.1647);fill-opacity:1;"/>
<path d="M18.5304 18.2071C18.715 18.3877 19.012 18.3957 19.2006 18.2151C19.6019 17.8339 20.0273 17.4768 20.4767 17.1437C20.6854 16.9912 20.7295 16.6943 20.5851 16.4816L12.8803 5.27756C12.7278 5.05284 12.4188 4.99666 12.1981 5.15316C11.0023 6.00791 9.8666 6.95896 8.81923 7.99028C8.62661 8.17889 8.63063 8.49189 8.81923 8.68451L18.5264 18.2071H18.5304Z" fill="#F5C42A" style="fill:#F5C42A;fill:color(display-p3 0.9608 0.7686 0.1647);fill-opacity:1;"/>
<path d="M14.3768 26.7689C14.6376 26.789 14.8663 26.6044 14.8984 26.3436C14.9586 25.7978 15.0549 25.2561 15.1834 24.7223C15.2436 24.4695 15.0911 24.2167 14.8383 24.1445L1.97691 20.4847C1.71607 20.4125 1.44319 20.565 1.37497 20.8258C1.00177 22.2544 0.744949 23.7151 0.604498 25.1878C0.580421 25.4567 0.781066 25.6935 1.05394 25.7175L14.3808 26.7689H14.3768Z" fill="#F5C42A" style="fill:#F5C42A;fill:color(display-p3 0.9608 0.7686 0.1647);fill-opacity:1;"/>
<path d="M55.2602 28.2344H52.1863C51.8091 28.2344 51.5041 28.5313 51.5001 28.9126C51.2473 41.3927 40.882 51.5493 28.3939 51.5493C15.9057 51.5493 5.53639 41.3927 5.28358 28.9126C5.27555 28.5313 4.97458 28.2344 4.59737 28.2344H1.51948C1.33087 28.2344 1.15832 28.3066 1.02589 28.443C0.89748 28.5755 0.825247 28.748 0.82926 28.9326C0.957673 36.1799 3.88308 42.9818 9.07175 48.0822C14.2644 53.1906 21.1265 56.0036 28.3898 56.0036C35.6532 56.0036 42.5153 53.1906 47.7079 48.0822C52.8926 42.9818 55.822 36.1799 55.9504 28.9326C55.9504 28.748 55.8822 28.5755 55.7538 28.443C55.6214 28.3106 55.4488 28.2344 55.2602 28.2344Z" fill="#F5C42A" style="fill:#F5C42A;fill:color(display-p3 0.9608 0.7686 0.1647);fill-opacity:1;"/>
<path d="M14.6775 28.6914C14.6655 28.3222 14.3645 28.0293 13.9913 28.0293H10.9174C10.7288 28.0293 10.5563 28.1015 10.4239 28.238C10.2914 28.3744 10.2232 28.555 10.2272 28.7436C10.3596 33.4828 12.3099 37.9211 15.7169 41.2438C19.1318 44.5705 23.6343 46.4044 28.3896 46.4044C33.1449 46.4044 37.6474 44.5705 41.0623 41.2438C44.4733 37.9211 46.4236 33.4828 46.552 28.7436C46.556 28.555 46.4878 28.3744 46.3553 28.238C46.2229 28.1055 46.0504 28.0293 45.8618 28.0293H42.7879C42.4147 28.0293 42.1137 28.3182 42.1017 28.6914C41.8569 36.1273 35.8335 41.9541 28.3896 41.9541C20.9457 41.9541 14.9223 36.1273 14.6775 28.6914Z" fill="#F5C42A" style="fill:#F5C42A;fill:color(display-p3 0.9608 0.7686 0.1647);fill-opacity:1;"/>
<path d="M37.3828 28.7515C37.3909 28.603 37.3387 28.4585 37.2343 28.3502C37.13 28.2418 36.9936 28.1816 36.8411 28.1816H33.7592C33.4783 28.1816 33.2495 28.3943 33.2255 28.6792C33.0007 31.1552 30.8739 33.0934 28.3859 33.0934C25.8979 33.0934 23.7711 31.1552 23.5464 28.6792C23.5223 28.3943 23.2895 28.1816 23.0126 28.1816H19.9307C19.7823 28.1816 19.6418 28.2418 19.5375 28.3502C19.4331 28.4585 19.381 28.603 19.389 28.7515C19.6619 33.5108 23.6106 37.2388 28.3819 37.2388C33.1532 37.2388 37.1019 33.5108 37.3748 28.7515H37.3828Z" fill="#F5C42A" style="fill:#F5C42A;fill:color(display-p3 0.9608 0.7686 0.1647);fill-opacity:1;"/>
<path d="M27.5674 14.6025C28.1132 14.5623 28.6669 14.5583 29.2127 14.5864C29.4735 14.5984 29.6942 14.4018 29.7183 14.145L30.9222 0.601455C30.9463 0.332591 30.7456 0.0918168 30.4768 0.0717523C29.004 -0.0325831 27.5193 -0.0205444 26.0465 0.111881C25.7777 0.135959 25.581 0.380745 25.6091 0.64961L27.0578 14.1691C27.0859 14.4259 27.3106 14.6225 27.5714 14.6025H27.5674Z" fill="#F5C42A" style="fill:#F5C42A;fill:color(display-p3 0.9608 0.7686 0.1647);fill-opacity:1;"/>
</svg>
